<!DOCTYPE svg PUBLIC "-//W3C//DTD SVG 20010904//EN" "http://www.w3.org/TR/2001/REC-SVG-20010904/DTD/svg10.dtd">
<svg version="1.0" xmlns="http://www.w3.org/2000/svg" width="128px" height="128px" viewBox="0 0 1280 1280" preserveAspectRatio="xMidYMid meet">
<g id="layer101" fill="#152c39" stroke="none">
 <path d="M0 640 l0 -640 640 0 640 0 0 640 0 640 -640 0 -640 0 0 -640z"/>
 </g>
<g id="layer102" fill="#02a0b4" stroke="none">
 <path d="M0 640 l0 -640 640 0 640 0 0 640 0 640 -640 0 -640 0 0 -640z m406 545 c15 -10 24 -29 28 -62 10 -65 28 -124 66 -213 22 -50 34 -97 37 -140 5 -60 3 -67 -21 -90 -22 -19 -37 -24 -79 -24 -128 0 -186 99 -172 294 6 96 29 232 41 251 8 13 70 3 100 -16z m131 -148 c13 -21 39 -78 58 -127 103 -270 167 -317 345 -254 90 31 140 27 140 -11 0 -13 -5 -27 -10 -30 -6 -3 -10 -33 -10 -65 0 -52 -4 -64 -31 -95 -54 -61 -124 -88 -277 -105 -180 -20 -318 26 -442 149 -106 104 -106 107 -74 241 l6 25 15 -30 c20 -40 61 -83 95 -101 15 -8 54 -14 88 -14 54 0 64 3 97 33 31 29 37 41 41 88 4 56 -7 95 -63 227 -14 35 -29 80 -32 100 -6 35 -5 36 12 22 10 -8 29 -32 42 -53z"/>
 </g>
<g id="layer103" fill="#7e9095" stroke="none">
 <path d="M0 640 l0 -640 640 0 640 0 0 640 0 640 -640 0 -640 0 0 -640z m406 545 c15 -10 24 -29 28 -62 10 -65 28 -124 66 -213 22 -50 34 -97 37 -140 5 -60 3 -67 -21 -90 -22 -19 -37 -24 -79 -24 -128 0 -186 99 -172 294 6 96 29 232 41 251 8 13 70 3 100 -16z m131 -148 c13 -21 39 -78 58 -127 103 -270 167 -317 345 -254 90 31 140 27 140 -11 0 -13 -5 -27 -10 -30 -6 -3 -10 -33 -10 -65 0 -52 -4 -64 -31 -95 -54 -61 -124 -88 -277 -105 -180 -20 -318 26 -442 149 -106 104 -106 107 -74 241 l6 25 15 -30 c20 -40 61 -83 95 -101 15 -8 54 -14 88 -14 54 0 64 3 97 33 31 29 37 41 41 88 4 56 -7 95 -63 227 -14 35 -29 80 -32 100 -6 35 -5 36 12 22 10 -8 29 -32 42 -53z m358 -347 c11 -17 33 -11 37 11 3 18 5 19 22 6 18 -13 16 -16 -38 -36 -62 -23 -116 -28 -116 -10 0 7 9 9 21 6 16 -4 19 -2 14 11 -5 14 -4 15 6 5 7 -7 20 -13 28 -13 12 0 11 3 -2 18 -10 10 -17 22 -17 26 0 9 37 -11 45 -24z m-721 -106 c17 -4 61 -40 110 -89 139 -140 272 -187 469 -166 120 12 190 32 240 65 40 27 41 27 52 -24 7 -34 7 -35 -12 -17 -39 34 -45 9 -13 -53 26 -52 27 -100 1 -100 -22 0 -31 26 -31 91 0 27 -6 51 -14 58 -11 9 -16 2 -27 -36 -18 -68 -19 -84 -3 -115 8 -15 14 -41 14 -58 0 -25 -4 -30 -23 -30 -32 0 -50 40 -41 95 7 51 -8 67 -29 28 -33 -64 -44 -81 -76 -121 -46 -59 -101 -86 -101 -50 0 5 33 44 73 86 41 43 79 88 86 100 13 25 6 62 -11 62 -19 0 -82 -82 -93 -119 -12 -39 -35 -54 -35 -22 0 34 -17 25 -61 -34 -39 -52 -69 -70 -69 -42 0 22 39 71 106 134 36 34 63 66 59 72 -11 19 -70 12 -106 -12 -24 -16 -48 -49 -79 -111 -44 -87 -70 -117 -70 -79 0 32 41 137 66 171 30 39 25 39 -50 2 -57 -28 -116 -82 -116 -105 0 -7 -9 -20 -20 -30 -11 -10 -20 -13 -20 -7 0 24 63 144 88 169 15 14 21 22 13 18 -7 -4 -47 -11 -89 -16 -53 -6 -86 -16 -113 -34 -45 -29 -49 -30 -49 -11 0 24 49 55 98 61 76 9 122 25 122 40 0 18 -30 19 -84 4 -53 -15 -186 -3 -186 16 0 23 13 24 75 9 74 -17 87 -17 109 -1 24 18 11 45 -32 63 -39 16 -75 12 -153 -16 -30 -11 -51 -14 -55 -8 -3 5 -4 10 -3 12 37 26 88 46 119 46 41 0 61 14 34 24 -9 3 -47 9 -85 12 -67 7 -85 16 -53 28 23 9 72 7 78 -3 8 -12 46 -21 46 -10 0 12 -54 39 -78 39 -11 0 -26 7 -33 16 -12 15 -11 16 6 11 11 -3 33 -9 49 -13z"/>
 </g>
<g id="layer104" fill="#31b2c2" stroke="none">
 <path d="M0 640 l0 -640 640 0 640 0 0 640 0 640 -640 0 -640 0 0 -640z m395 552 c27 -17 32 -29 48 -103 9 -46 35 -126 58 -178 73 -170 50 -261 -66 -261 -47 0 -75 13 -112 51 -52 53 -67 113 -59 243 7 121 22 220 37 248 13 23 56 23 94 0z m141 -155 c23 -37 49 -91 58 -121 33 -104 98 -218 142 -249 59 -41 104 -44 199 -12 77 26 136 28 150 6 2 -5 -2 -25 -10 -45 -8 -19 -15 -55 -15 -79 0 -112 -114 -175 -345 -192 -73 -5 -104 -3 -168 14 -95 25 -145 54 -230 132 -74 67 -108 116 -102 145 2 10 9 46 16 78 l11 60 15 -35 c17 -40 57 -85 95 -105 15 -8 54 -14 88 -14 55 0 64 3 98 34 37 34 37 35 36 109 -1 64 -7 87 -42 163 -22 49 -43 103 -46 119 -4 17 -9 38 -13 49 -11 39 23 8 63 -57z m359 -347 c11 -17 33 -11 37 11 3 18 5 19 22 6 18 -13 16 -16 -38 -36 -62 -23 -116 -28 -116 -10 0 7 9 9 21 6 16 -4 19 -2 14 11 -5 14 -4 15 6 5 7 -7 20 -13 28 -13 12 0 11 3 -2 18 -10 10 -17 22 -17 26 0 9 37 -11 45 -24z m-721 -106 c17 -4 61 -40 110 -89 139 -140 272 -187 469 -166 120 12 190 32 240 65 40 27 41 27 52 -24 7 -34 7 -35 -12 -17 -39 34 -45 9 -13 -53 26 -52 27 -100 1 -100 -22 0 -31 26 -31 91 0 27 -6 51 -14 58 -11 9 -16 2 -27 -36 -18 -68 -19 -84 -3 -115 8 -15 14 -41 14 -58 0 -25 -4 -30 -23 -30 -32 0 -50 40 -41 95 7 51 -8 67 -29 28 -33 -64 -44 -81 -76 -121 -46 -59 -101 -86 -101 -50 0 5 33 44 73 86 41 43 79 88 86 100 13 25 6 62 -11 62 -19 0 -82 -82 -93 -119 -12 -39 -35 -54 -35 -22 0 34 -17 25 -61 -34 -39 -52 -69 -70 -69 -42 0 22 39 71 106 134 36 34 63 66 59 72 -11 19 -70 12 -106 -12 -24 -16 -48 -49 -79 -111 -44 -87 -70 -117 -70 -79 0 32 41 137 66 171 30 39 25 39 -50 2 -57 -28 -116 -82 -116 -105 0 -7 -9 -20 -20 -30 -11 -10 -20 -13 -20 -7 0 24 63 144 88 169 15 14 21 22 13 18 -7 -4 -47 -11 -89 -16 -53 -6 -86 -16 -113 -34 -45 -29 -49 -30 -49 -11 0 24 49 55 98 61 76 9 122 25 122 40 0 18 -30 19 -84 4 -53 -15 -186 -3 -186 16 0 23 13 24 75 9 74 -17 87 -17 109 -1 24 18 11 45 -32 63 -39 16 -75 12 -153 -16 -30 -11 -51 -14 -55 -8 -3 5 -4 10 -3 12 37 26 88 46 119 46 41 0 61 14 34 24 -9 3 -47 9 -85 12 -67 7 -85 16 -53 28 23 9 72 7 78 -3 8 -12 46 -21 46 -10 0 12 -54 39 -78 39 -11 0 -26 7 -33 16 -12 15 -11 16 6 11 11 -3 33 -9 49 -13z"/>
 </g>
<g id="layer105" fill="#4cbcc9" stroke="none">
 <path d="M0 640 l0 -640 640 0 640 0 0 640 0 640 -640 0 -640 0 0 -640z m395 552 c27 -17 32 -29 48 -103 9 -46 35 -126 58 -178 73 -170 50 -261 -66 -261 -47 0 -75 13 -112 51 -52 53 -67 113 -59 243 7 121 22 220 37 248 13 23 56 23 94 0z m141 -155 c23 -37 49 -91 58 -121 33 -104 98 -218 142 -249 59 -41 104 -44 199 -12 77 26 136 28 150 6 2 -5 -2 -25 -10 -45 -8 -19 -15 -55 -15 -79 0 -112 -114 -175 -345 -192 -73 -5 -104 -3 -168 14 -95 25 -145 54 -230 132 -74 67 -108 116 -102 145 2 10 9 46 16 78 l11 60 15 -35 c17 -40 57 -85 95 -105 15 -8 54 -14 88 -14 55 0 64 3 98 34 37 34 37 35 36 109 -1 64 -7 87 -42 163 -22 49 -43 103 -46 119 -4 17 -9 38 -13 49 -11 39 23 8 63 -57z m354 -337 c32 -25 38 -25 42 1 3 18 5 19 23 6 18 -14 18 -16 -20 -32 -55 -22 -135 -32 -135 -15 0 8 8 10 21 7 16 -4 19 -2 14 11 -5 14 -4 15 6 5 7 -7 20 -13 29 -13 11 1 9 5 -7 19 -42 35 -16 45 27 11z m-701 -113 c8 -1 37 -29 65 -61 73 -85 185 -159 277 -182 138 -35 368 -9 461 51 41 27 42 26 53 -25 6 -29 5 -33 -6 -22 -7 6 -19 12 -25 12 -9 0 -5 -21 12 -71 26 -74 26 -99 -1 -99 -20 0 -35 40 -35 94 0 23 -7 51 -15 62 -14 18 -14 18 -15 -4 0 -13 -6 -35 -14 -51 -17 -32 -15 -61 8 -115 21 -46 15 -66 -17 -66 -39 0 -51 23 -44 85 3 30 2 55 -3 55 -5 0 -27 -31 -49 -68 -38 -65 -109 -142 -131 -142 -6 0 -13 7 -16 15 -4 10 19 42 66 91 71 75 102 126 93 151 -3 7 -10 13 -17 13 -16 0 -68 -68 -87 -114 -19 -47 -36 -57 -41 -24 -3 23 -3 23 -28 -6 -14 -15 -39 -44 -56 -64 -36 -41 -58 -37 -43 8 6 16 47 63 91 104 44 41 77 80 73 86 -11 18 -67 11 -101 -12 -36 -24 -86 -101 -107 -163 -14 -41 -47 -61 -47 -29 0 36 44 150 68 177 32 34 25 34 -41 1 -54 -27 -127 -90 -127 -109 0 -7 -9 -20 -20 -30 -11 -10 -20 -14 -20 -9 1 32 66 164 82 164 4 0 8 4 8 8 0 19 -117 -1 -178 -30 -67 -33 -87 -31 -56 3 29 32 63 46 127 52 61 6 95 23 79 39 -6 6 -25 5 -48 -1 -72 -20 -214 -10 -214 15 0 21 12 22 82 8 115 -24 160 14 71 59 -35 19 -68 16 -150 -14 -34 -12 -54 -15 -59 -8 -3 6 -4 11 -3 13 37 26 88 46 119 46 21 0 41 4 44 8 6 11 -82 32 -131 32 -23 0 -33 4 -30 13 4 14 79 16 116 3 16 -6 21 -5 17 3 -4 6 -27 16 -51 22 -25 6 -50 18 -57 27 -12 14 -9 14 22 8 19 -4 41 -9 49 -9z"/>
 </g>
<g id="layer106" fill="#90a1a6" stroke="none">
 <path d="M0 640 l0 -640 640 0 640 0 0 640 0 640 -640 0 -640 0 0 -640z m395 552 c27 -17 32 -29 48 -103 9 -46 35 -126 58 -178 73 -170 50 -261 -66 -261 -47 0 -75 13 -112 51 -52 53 -67 113 -59 243 7 121 22 220 37 248 13 23 56 23 94 0z m141 -155 c23 -37 49 -91 58 -121 33 -104 98 -218 142 -249 59 -41 104 -44 199 -12 77 26 136 28 150 6 2 -5 -2 -25 -10 -45 -8 -19 -15 -55 -15 -79 0 -112 -114 -175 -345 -192 -73 -5 -104 -3 -168 14 -95 25 -145 54 -230 132 -74 67 -108 116 -102 145 2 10 9 46 16 78 l11 60 15 -35 c17 -40 57 -85 95 -105 15 -8 54 -14 88 -14 55 0 64 3 98 34 37 34 37 35 36 109 -1 64 -7 87 -42 163 -22 49 -43 103 -46 119 -4 17 -9 38 -13 49 -11 39 23 8 63 -57z m348 -332 c25 -19 46 -19 46 0 0 12 4 13 25 3 30 -14 27 -17 -33 -40 -51 -20 -122 -24 -122 -8 0 6 6 10 14 10 8 0 16 6 19 13 3 9 8 9 21 -2 9 -8 19 -11 22 -8 3 3 -3 12 -15 19 -12 7 -21 16 -21 20 0 13 23 9 44 -7z m-695 -115 c9 0 34 -23 56 -50 72 -91 187 -169 290 -196 119 -32 342 -8 444 47 30 16 55 28 56 26 1 -1 6 -20 9 -41 7 -35 6 -38 -8 -27 -30 25 -34 5 -10 -54 28 -69 28 -100 -1 -100 -24 0 -44 49 -44 112 -1 52 -16 64 -25 20 -18 -84 -18 -110 -1 -147 27 -60 -4 -102 -46 -64 -18 16 -21 27 -16 77 3 31 1 57 -4 57 -4 0 -26 -31 -48 -68 -38 -65 -109 -142 -131 -142 -6 0 -13 7 -16 15 -4 10 19 42 66 91 71 75 102 126 93 151 -3 7 -10 13 -17 13 -18 0 -70 -71 -87 -119 -18 -53 -39 -66 -39 -24 -1 27 -3 25 -59 -36 -33 -37 -62 -61 -69 -57 -22 14 10 65 89 141 44 42 77 80 74 86 -11 16 -68 9 -100 -13 -37 -25 -75 -82 -103 -153 -20 -51 -52 -74 -52 -37 0 34 41 147 63 169 26 29 9 29 -46 2 -54 -27 -94 -65 -118 -111 -20 -39 -39 -50 -39 -23 0 20 19 62 56 121 l31 50 -64 -8 c-37 -4 -88 -19 -119 -35 -54 -27 -77 -26 -58 5 16 25 72 49 133 56 63 8 98 23 83 38 -6 6 -23 6 -48 -1 -42 -12 -155 -14 -192 -5 -28 8 -25 40 3 37 154 -19 183 -15 169 20 -15 39 -91 47 -183 18 -56 -17 -71 -18 -71 -1 0 14 81 50 126 57 l49 7 -50 13 c-27 7 -67 11 -87 8 -39 -5 -61 10 -37 27 15 10 92 5 123 -7 13 -6 17 -5 12 3 -3 6 -31 18 -61 27 -59 17 -78 42 -24 31 17 -3 39 -6 48 -6z"/>
 </g>
<g id="layer107" fill="#a3b3b6" stroke="none">
 <path d="M0 640 l0 -640 640 0 640 0 0 640 0 640 -640 0 -640 0 0 -640z m397 550 c24 -14 34 -29 39 -57 14 -84 32 -150 47 -180 22 -41 54 -130 62 -170 15 -75 -32 -133 -109 -133 -47 0 -75 12 -109 46 -39 39 -56 74 -65 135 -8 57 8 245 28 327 11 49 14 52 43 52 18 0 46 -9 64 -20z m115 -112 c26 -34 88 -158 88 -176 0 -19 63 -148 93 -189 18 -25 49 -52 75 -65 41 -19 50 -20 102 -10 32 7 72 19 90 28 33 17 103 15 121 -3 6 -6 3 -24 -6 -46 -8 -20 -15 -56 -15 -79 0 -112 -111 -175 -339 -194 -186 -16 -351 62 -482 227 l-31 39 12 73 c16 91 20 97 37 56 17 -40 58 -85 95 -105 15 -8 53 -14 86 -14 52 0 63 4 98 34 38 33 39 33 38 107 -1 64 -6 85 -37 152 -32 69 -67 167 -67 189 0 17 19 7 42 -24z m372 -373 c25 -19 46 -19 46 0 0 12 4 13 25 3 30 -14 27 -17 -33 -40 -51 -20 -122 -24 -122 -8 0 6 6 10 14 10 8 0 16 6 19 13 3 9 8 9 21 -2 9 -8 19 -11 22 -8 3 3 -3 12 -15 19 -12 7 -21 16 -21 20 0 13 23 9 44 -7z m-695 -115 c9 0 34 -23 56 -50 69 -88 190 -170 288 -196 121 -32 343 -9 446 47 30 16 55 28 56 26 1 -1 6 -20 9 -41 7 -35 6 -38 -8 -27 -30 25 -34 5 -10 -54 28 -69 28 -100 -1 -100 -24 0 -44 49 -44 112 -1 52 -16 64 -25 20 -18 -84 -18 -110 -1 -147 27 -60 -4 -102 -46 -64 -18 16 -21 27 -16 77 3 31 1 57 -4 57 -4 0 -26 -31 -48 -68 -38 -65 -109 -142 -131 -142 -6 0 -13 7 -16 15 -4 10 19 42 66 91 71 75 102 126 93 151 -3 7 -10 13 -17 13 -18 0 -70 -71 -87 -119 -18 -53 -39 -66 -39 -24 -1 27 -3 25 -59 -36 -33 -37 -62 -61 -69 -57 -22 14 10 65 89 141 44 42 77 80 74 86 -11 16 -68 9 -100 -13 -37 -25 -75 -82 -103 -153 -20 -51 -52 -74 -52 -37 0 34 41 147 63 169 26 29 9 29 -46 2 -54 -27 -94 -65 -118 -111 -20 -39 -39 -50 -39 -23 0 20 19 62 56 121 l31 50 -64 -8 c-37 -4 -88 -19 -119 -35 -54 -27 -77 -26 -58 5 16 25 72 49 133 56 63 8 98 23 83 38 -6 6 -23 6 -48 -1 -42 -12 -155 -14 -192 -5 -28 8 -25 40 3 37 154 -19 183 -15 169 20 -15 39 -91 47 -183 18 -56 -17 -71 -18 -71 -1 0 14 81 50 126 57 l49 7 -50 13 c-27 7 -67 11 -87 8 -39 -5 -61 10 -37 27 15 10 92 5 123 -7 13 -6 17 -5 12 3 -3 6 -31 18 -61 27 -59 17 -78 42 -24 31 17 -3 39 -6 48 -6z"/>
 </g>
<g id="layer108" fill="#b7c6c7" stroke="none">
 <path d="M0 640 l0 -640 640 0 640 0 0 640 0 640 -640 0 -640 0 0 -640z m417 535 c13 -15 23 -39 23 -58 0 -18 14 -70 31 -117 80 -224 81 -229 75 -264 -4 -19 -15 -45 -25 -58 -17 -20 -28 -23 -84 -23 -74 0 -108 18 -142 76 -37 63 -45 138 -30 272 8 67 20 142 26 166 l12 43 46 -5 c33 -4 52 -12 68 -32z m142 -177 c23 -44 41 -86 41 -93 0 -7 20 -52 44 -101 47 -97 103 -157 155 -169 34 -7 117 9 160 31 36 19 105 18 122 -2 10 -13 10 -19 0 -36 -7 -12 -15 -48 -17 -80 -4 -70 -27 -107 -87 -142 -59 -35 -145 -55 -262 -62 -167 -11 -273 28 -398 145 -108 102 -111 107 -96 196 6 42 16 78 20 81 5 3 9 -1 9 -9 0 -28 62 -99 103 -118 71 -32 158 -20 198 27 39 45 30 149 -21 259 -29 62 -60 157 -60 184 0 29 48 -31 89 -111z m325 -293 c25 -19 46 -19 46 0 0 12 4 13 25 3 30 -14 27 -17 -33 -40 -51 -20 -122 -24 -122 -8 0 6 6 10 14 10 8 0 16 6 19 13 3 9 8 9 21 -2 9 -8 19 -11 22 -8 3 3 -3 12 -15 19 -12 7 -21 16 -21 20 0 13 23 9 44 -7z m-694 -115 c10 0 35 -23 56 -50 66 -87 194 -172 299 -199 59 -16 215 -13 303 5 42 8 101 29 131 45 30 16 55 28 56 26 1 -1 6 -20 9 -41 7 -35 6 -38 -8 -27 -30 25 -34 5 -10 -54 28 -69 28 -100 -1 -100 -24 0 -44 49 -44 112 -1 52 -16 64 -25 20 -18 -84 -18 -110 -1 -147 27 -60 -4 -102 -46 -64 -18 16 -21 27 -16 77 3 31 1 57 -4 57 -4 0 -26 -31 -48 -68 -38 -65 -109 -142 -131 -142 -6 0 -13 7 -16 15 -4 10 19 42 66 91 71 75 102 126 93 151 -3 7 -10 13 -17 13 -18 0 -70 -71 -87 -119 -18 -53 -39 -66 -39 -24 -1 27 -3 25 -59 -36 -33 -37 -62 -61 -69 -57 -22 14 10 65 89 141 44 42 77 80 74 86 -11 16 -68 9 -100 -13 -37 -25 -75 -82 -103 -153 -20 -51 -52 -74 -52 -37 0 34 41 147 63 169 26 29 9 29 -46 2 -54 -27 -94 -65 -118 -111 -20 -39 -39 -50 -39 -23 0 20 19 62 56 121 l31 50 -64 -8 c-37 -4 -88 -19 -119 -35 -54 -27 -77 -26 -58 5 16 25 72 49 133 56 63 8 98 23 83 38 -6 6 -23 6 -48 -1 -42 -12 -155 -14 -192 -5 -28 8 -25 40 3 37 154 -19 183 -15 169 20 -15 39 -91 47 -183 18 -56 -17 -71 -18 -71 -1 0 14 81 50 126 57 l49 7 -50 13 c-27 7 -67 11 -87 8 -39 -5 -61 10 -37 27 15 10 92 5 123 -7 13 -6 17 -5 12 3 -3 6 -31 18 -61 27 -59 17 -78 42 -24 31 17 -3 39 -6 49 -6z"/>
 </g>
<g id="layer109" fill="#c9d7d7" stroke="none">
 <path d="M0 640 l0 -640 640 0 640 0 0 640 0 640 -640 0 -640 0 0 -640z m367 565 c57 -17 60 -22 87 -145 9 -41 32 -108 51 -150 43 -95 53 -165 31 -208 -21 -41 -44 -52 -104 -52 -125 0 -195 129 -172 319 21 171 38 251 54 251 1 0 25 -7 53 -15z m164 -152 c16 -23 46 -84 65 -135 71 -182 124 -259 195 -278 42 -11 66 -8 147 21 101 36 171 18 141 -37 -7 -14 -14 -44 -14 -67 -3 -71 -4 -75 -35 -110 -74 -85 -327 -133 -485 -92 -114 30 -228 110 -309 218 l-28 37 12 80 c13 81 23 98 35 58 21 -69 103 -127 178 -128 128 -1 175 110 112 262 -42 99 -63 160 -71 203 -7 37 -6 39 10 26 10 -8 31 -34 47 -58z m353 -348 c25 -19 44 -19 48 -1 3 12 7 13 28 1 l24 -13 -39 -17 c-50 -22 -145 -32 -145 -16 0 6 6 11 14 11 8 0 16 6 19 13 3 9 8 9 21 -2 9 -8 19 -11 22 -8 3 3 -3 12 -15 19 -12 7 -21 16 -21 20 0 13 23 9 44 -7z m-596 -204 c131 -130 224 -171 390 -171 118 0 232 23 301 61 29 17 54 29 56 27 1 -2 6 -21 9 -42 7 -35 6 -38 -8 -27 -30 25 -34 5 -10 -54 28 -69 28 -100 -1 -100 -24 0 -44 49 -44 112 -1 52 -16 64 -25 20 -18 -84 -18 -110 -1 -147 27 -60 -4 -102 -46 -64 -18 16 -21 27 -16 77 3 31 1 57 -4 57 -4 0 -26 -31 -48 -68 -38 -65 -109 -142 -131 -142 -6 0 -13 7 -16 15 -4 10 19 42 66 91 71 75 102 126 93 151 -3 7 -10 13 -17 13 -18 0 -70 -71 -87 -119 -18 -53 -39 -66 -39 -24 -1 27 -3 25 -59 -36 -33 -37 -62 -61 -69 -57 -22 14 10 65 89 141 44 42 77 80 74 86 -11 16 -68 9 -100 -13 -37 -25 -75 -82 -103 -153 -20 -51 -52 -74 -52 -37 0 34 41 147 63 169 26 29 9 29 -46 2 -54 -27 -94 -65 -118 -111 -20 -39 -39 -50 -39 -23 0 20 19 62 56 121 l31 50 -64 -8 c-37 -4 -88 -19 -119 -35 -54 -27 -77 -26 -58 5 16 25 72 49 133 56 63 8 98 23 83 38 -6 6 -23 6 -48 -1 -42 -12 -155 -14 -192 -5 -28 8 -25 40 3 37 154 -19 183 -15 169 20 -15 39 -91 47 -183 18 -56 -17 -71 -18 -71 -1 0 14 81 50 126 57 l49 7 -50 13 c-27 7 -67 11 -87 8 -39 -5 -61 10 -37 27 15 10 92 5 123 -7 13 -6 17 -5 12 3 -3 6 -31 18 -61 27 -68 19 -74 39 -9 29 40 -6 55 -16 132 -93z"/>
 </g>
<g id="layer110" fill="#d5eceb" stroke="none">
 <path d="M0 640 l0 -640 640 0 640 0 0 640 0 640 -640 0 -640 0 0 -640z m402 554 c15 -8 30 -24 32 -37 2 -12 10 -49 16 -82 7 -33 30 -103 53 -155 33 -76 41 -107 41 -158 1 -58 -2 -66 -27 -88 -22 -18 -40 -24 -78 -24 -92 0 -147 50 -175 160 -14 54 -14 77 -5 159 16 128 31 212 43 234 10 20 49 17 100 -9z m143 -159 c13 -22 40 -81 59 -132 65 -170 107 -230 181 -258 42 -17 47 -16 115 4 40 12 70 25 66 28 -3 3 -23 -2 -46 -11 -45 -18 -120 -22 -120 -6 0 6 6 10 14 10 8 0 16 6 19 13 4 10 7 10 18 0 7 -7 18 -13 24 -13 5 1 -1 10 -14 21 -31 26 -18 38 18 16 36 -21 51 -22 51 -2 0 12 4 13 25 3 14 -6 25 -15 25 -20 0 -4 19 -8 43 -8 62 0 74 -11 59 -53 -7 -18 -12 -50 -12 -70 0 -71 -34 -123 -105 -159 -47 -25 -129 -48 -168 -48 -16 0 -26 -4 -23 -9 9 -14 137 17 200 49 33 17 60 29 61 28 1 -2 6 -21 9 -42 7 -35 6 -38 -8 -27 -30 25 -34 5 -10 -54 28 -69 28 -100 -1 -100 -24 0 -44 49 -44 112 -1 52 -16 64 -25 20 -18 -84 -18 -110 -1 -147 27 -60 -4 -102 -46 -64 -18 16 -21 27 -16 77 3 31 1 57 -4 57 -4 0 -26 -31 -48 -68 -38 -65 -109 -142 -131 -142 -6 0 -13 7 -16 15 -4 10 19 42 66 91 71 75 102 126 93 151 -3 7 -10 13 -17 13 -18 0 -70 -71 -87 -119 -18 -53 -39 -66 -39 -24 -1 27 -3 25 -59 -36 -33 -37 -62 -61 -69 -57 -22 14 10 65 89 141 44 42 77 80 74 86 -11 16 -68 9 -100 -13 -37 -25 -75 -82 -103 -153 -20 -51 -52 -74 -52 -37 0 34 41 147 63 170 26 28 9 28 -46 1 -54 -27 -94 -65 -118 -111 -20 -39 -39 -50 -39 -23 0 20 19 62 56 121 l31 50 -64 -8 c-37 -4 -88 -19 -119 -35 -54 -27 -77 -26 -58 5 16 25 72 49 133 56 63 8 98 23 83 38 -6 6 -23 6 -48 -1 -42 -12 -155 -14 -192 -5 -28 8 -25 40 3 37 154 -19 183 -15 169 20 -15 39 -91 47 -183 18 -56 -17 -71 -18 -71 -1 0 14 81 50 126 57 l49 7 -50 13 c-27 7 -67 11 -87 8 -39 -5 -61 10 -37 27 15 10 92 5 123 -7 13 -6 17 -5 12 3 -3 6 -31 18 -61 27 -68 19 -74 39 -9 29 40 -6 55 -16 132 -93 92 -92 184 -148 260 -157 35 -4 35 -3 -9 10 -85 25 -172 79 -246 153 -39 40 -74 81 -78 93 -6 19 11 155 22 173 3 5 15 -14 28 -41 12 -27 35 -58 50 -70 78 -62 211 -49 243 24 27 59 13 137 -51 289 -15 34 -29 81 -33 105 l-7 45 28 -25 c15 -14 37 -43 50 -65z"/>
 <path d="M633 333 c26 -2 67 -2 90 0 23 2 2 3 -48 3 -49 0 -68 -1 -42 -3z"/>
 </g>
<g id="layer111" fill="#e8f5f3" stroke="none">
 <path d="M0 640 l0 -640 640 0 640 0 0 640 0 640 -640 0 -640 0 0 -640z m387 560 c28 -12 44 -27 47 -42 3 -13 10 -47 15 -76 6 -29 31 -104 56 -166 56 -142 59 -193 16 -237 -26 -26 -36 -29 -90 -29 -54 0 -64 4 -97 32 -41 36 -68 90 -79 154 -8 51 21 305 40 350 16 39 32 42 92 14z m159 -166 c13 -22 43 -90 67 -150 49 -124 94 -196 140 -225 35 -21 52 -25 42 -10 -3 6 4 19 16 30 17 16 26 18 36 10 9 -8 13 -8 13 0 0 6 -4 11 -10 11 -5 0 -10 7 -10 15 0 20 7 19 37 -5 30 -24 53 -26 53 -5 0 8 6 15 13 15 17 -1 48 -26 40 -33 -3 -4 14 -7 38 -7 64 0 76 -11 61 -53 -7 -18 -12 -53 -12 -76 0 -49 -10 -73 -54 -121 -17 -19 -21 -26 -8 -16 27 23 29 22 38 -34 7 -41 6 -44 -9 -32 -30 25 -38 8 -17 -33 12 -22 22 -58 23 -80 2 -34 -1 -40 -18 -40 -24 0 -43 49 -45 115 l-1 45 -19 -39 c-24 -48 -25 -77 -4 -121 8 -18 14 -46 12 -62 -2 -22 -9 -29 -31 -31 -23 -3 -30 2 -42 31 -11 26 -12 43 -5 68 12 42 12 49 0 49 -5 0 -17 -15 -25 -33 -46 -97 -109 -167 -151 -170 -43 -3 -36 16 28 81 82 83 113 131 109 170 -2 20 -32 14 -38 -8 -3 -10 -15 -26 -28 -34 -15 -10 -26 -29 -30 -53 -8 -51 -19 -67 -40 -60 -11 5 -14 14 -10 29 5 18 -2 13 -29 -17 -19 -22 -35 -43 -36 -46 0 -12 -50 -40 -60 -34 -26 16 71 144 143 190 9 6 17 16 19 24 5 21 -42 20 -89 -2 -35 -17 -47 -32 -77 -91 -19 -39 -37 -81 -41 -93 -7 -26 -34 -38 -41 -18 -8 19 23 142 43 172 19 29 14 29 -48 -2 -35 -18 -58 -40 -79 -73 -42 -67 -50 -76 -63 -63 -7 7 -6 20 5 43 9 18 21 44 27 58 6 14 23 40 38 59 26 32 26 33 5 22 -12 -7 -31 -9 -42 -6 -21 7 -96 -12 -120 -29 -21 -15 -59 -36 -65 -36 -3 0 -5 9 -5 20 0 39 52 68 135 75 39 3 94 26 78 32 -7 3 -34 1 -60 -5 -27 -5 -79 -6 -118 -3 -61 5 -70 8 -70 26 0 22 11 23 123 10 61 -8 62 -7 62 16 0 50 -102 62 -188 23 -35 -16 -66 -12 -60 8 7 21 61 46 118 54 l55 8 -40 8 c-22 5 -64 9 -92 9 -35 0 -53 4 -53 12 0 15 38 40 50 32 5 -3 11 -1 15 5 3 5 -6 12 -20 16 -29 7 -28 30 1 27 87 -12 93 -11 87 3 -7 18 17 174 26 174 4 0 12 -15 19 -34 43 -119 212 -164 286 -75 46 54 37 127 -38 304 -14 34 -28 81 -32 105 l-7 45 28 -25 c15 -14 38 -43 51 -66z"/>
 <path d="M953 673 c4 -3 10 -3 14 0 3 4 0 7 -7 7 -7 0 -10 -3 -7 -7z"/>
 <path d="M903 653 c4 -3 10 -3 14 0 3 4 0 7 -7 7 -7 0 -10 -3 -7 -7z"/>
 <path d="M868 643 c7 -3 16 -2 19 1 4 3 -2 6 -13 5 -11 0 -14 -3 -6 -6z"/>
 <path d="M220 576 c0 -2 8 -10 18 -17 15 -13 16 -12 3 4 -13 16 -21 21 -21 13z"/>
 <path d="M163 553 c4 -3 10 -3 14 0 3 4 0 7 -7 7 -7 0 -10 -3 -7 -7z"/>
 <path d="M193 543 c4 -3 10 -3 14 0 3 4 0 7 -7 7 -7 0 -10 -3 -7 -7z"/>
 <path d="M285 500 c21 -22 41 -40 44 -40 3 0 -13 18 -34 40 -21 22 -41 40 -44 40 -3 0 13 -18 34 -40z"/>
 <path d="M350 446 c0 -2 8 -10 18 -17 15 -13 16 -12 3 4 -13 16 -21 21 -21 13z"/>
 <path d="M390 416 c0 -3 9 -10 20 -16 11 -6 20 -8 20 -6 0 3 -9 10 -20 16 -11 6 -20 8 -20 6z"/>
 <path d="M923 373 c4 -3 10 -3 14 0 3 4 0 7 -7 7 -7 0 -10 -3 -7 -7z"/>
 <path d="M483 363 c4 -3 10 -3 14 0 3 4 0 7 -7 7 -7 0 -10 -3 -7 -7z"/>
 <path d="M893 363 c4 -3 10 -3 14 0 3 4 0 7 -7 7 -7 0 -10 -3 -7 -7z"/>
 <path d="M513 353 c4 -3 10 -3 14 0 3 4 0 7 -7 7 -7 0 -10 -3 -7 -7z"/>
 <path d="M853 353 c4 -3 10 -3 14 0 3 4 0 7 -7 7 -7 0 -10 -3 -7 -7z"/>
 <path d="M548 343 c7 -3 16 -2 19 1 4 3 -2 6 -13 5 -11 0 -14 -3 -6 -6z"/>
 <path d="M793 343 c9 -2 23 -2 30 0 6 3 -1 5 -18 5 -16 0 -22 -2 -12 -5z"/>
 <path d="M633 333 c20 -2 54 -2 75 0 20 2 3 4 -38 4 -41 0 -58 -2 -37 -4z"/>
 </g>

</svg>